<?xml version="1.0" encoding="utf-8"?>
<!-- Generator: Adobe Illustrator 26.4.0, SVG Export Plug-In . SVG Version: 6.00 Build 0)  -->
<svg version="1.1" id="Layer_1" xmlns="http://www.w3.org/2000/svg" xmlns:xlink="http://www.w3.org/1999/xlink" x="0px" y="0px"
	 viewBox="0 0 400 130" style="enable-background:new 0 0 400 130;" xml:space="preserve">
<style type="text/css">
	.st0{fill:none;stroke:#000000;stroke-width:3;stroke-miterlimit:10;}
</style>
<path class="st0" id="pathID" fill="none" stroke="black" stroke-width="3" stroke-linecap="round" stroke-linejoin="round" stroke-miterlimit="10" d="M58.9,93.4c-2.1,0.4-5,0.7-7.2,0.4c-4-0.6-6.2-2.2-7.3-6c-0.4-1.4-0.6-2.9-0.6-4.5c0-15.7,0-31.5,0-47.2
	 M58,49.8H34.6 M71.4,69.3l32.4,0c0,0,0.2-7.2-0.3-10.4c-0.7-4.4-3.2-7.3-7.2-8.9c-3.9-1.5-8-1.7-12.2-1.1c-1.8,0.2-3.6,0.6-5.3,1.3
	c-5.1,2-7.2,6-7.4,11.2c-0.1,2.5,0,10.1,0,10.1s-0.4,8.7,0.6,12c1.2,4.3,3.9,7.3,8.1,8.9c2.2,0.8,4.5,1.4,6.9,1.5c0,0,4.8,0.3,8,0
	c2.2-0.2,6.3-0.4,8.9-0.8 M119.8,49.4l0,44.4 M142.8,49.6c-1.6-0.3-4-0.6-5.6-0.1c-1.5,0.4-2.7,1.5-3.8,2.4l-13.5,12 M155.8,49.4
	l0,44.4 M178.7,49.6c-1.6-0.3-4-0.6-5.6-0.1c-1.5,0.4-2.7,1.5-3.8,2.4l-13.5,12 M218.5,93.8V70.1c0,0,0.2-7.5-0.3-11.2
	c-0.8-5.4-4.1-8.4-9.2-9.6c-3-0.7-5.9-0.6-9-0.4c-3.2,0.2-6.4,0.4-9.6,0.7 M218.5,69.7c-6,0.1-12.7,0.3-18.7,0.7
	c-3.3,0.2-6.4,0.8-9.1,2.7c-4,2.8-5,8.5-3.7,13c1.3,4.5,5.4,7.4,9.9,7.9c2.5,0.3,4.9-0.3,7-1.5c2.5-1.4,14.6-9.7,14.6-9.7
	 M234.1,61.7l25.2,0c3.2,0,6.1-0.9,8.5-3c2.7-2.4,3.9-5.5,3.9-9v-7.9c-0.1-3.6-1.3-6.7-3.9-9c-2.4-2.1-5.3-3-8.5-3l-25.2,0v64
	 M282.4,69.5l32.4,0c0,0,0.2-7.2-0.3-10.4c-0.7-4.4-3.2-7.3-7.2-8.9c-3.9-1.5-8-1.7-12.2-1.1c-1.8,0.2-3.6,0.6-5.3,1.3
	c-5.1,2-7.2,6-7.4,11.2c-0.1,2.5,0,10.1,0,10.1s-0.4,8.7,0.6,12c1.2,4.3,3.9,7.3,8.1,8.9c2.2,0.8,4.5,1.4,6.9,1.5c0,0,4.8,0.3,8,0
	c2.2-0.2,6.3-0.4,8.9-0.8 M330.8,49.4v44.4 M363.4,93.8V69.9c0,0,0-7.6-0.3-11.2c-0.3-3.1-1.9-5.9-4.5-7.6c-1.5-1-3.2-1.7-4.9-2
	c-1.6-0.3-3.3-0.3-4.9-0.1c-1.5,0.2-2.8,1.1-4.1,1.9l-9.9,6.6l-4.1,2.6"/>
</svg>
