<?xml version="1.0" encoding="UTF-8"?>
<svg id="Layer_1" xmlns="http://www.w3.org/2000/svg" version="1.1" viewBox="0 0 450 450">
  <!-- Generator: Adobe Illustrator 30.2.1, SVG Export Plug-In . SVG Version: 2.1.1 Build 1)  -->
  <defs>
    <style>
      .st0 {
        fill: none;
        stroke: #000;
        stroke-linecap: round;
        stroke-linejoin: round;
        stroke-width: 3px;
      }
    </style>
  </defs>
  <path class="st0" d="M168,137.7l28.5,16.5v65.8l28.5,16.5v32.9s-28.5-16.5-28.5-16.5h0v49.3c0,10.2,5.4,19.6,14.3,24.7l14.2,8.2v32.9l-28.5-16.5c-7.8-4.5-16.2-12.2-21.3-21.1-5.2-9.1-7.2-19.4-7.2-28.3v-65.8l-28.5-16.5v-32.9l28.5,16.5v-65.8h0s92.6-53.5,92.6-53.5c4.7-2.7,10.1-2.4,14.2,0l14.2,8.2h0c4.2,2.4,7.1,6.9,7.1,12.3v24.6c0,0-71.2,41.2-71.2,41.2v32.9s0,0,0,0l35.6-20.6c4.7-2.7,10.1-2.4,14.2,0l14.2,8.2h0c4.2,2.4,7.1,6.9,7.1,12.3v24.6c0,0-71.2,41.2-71.2,41.2v16.4c0,10.2,5.5,19.7,14.3,24.8l14.2,8.2v32.9l-28.5,16.5-28.5-16.5c-7.8-4.5-16.2-12.2-21.3-21.1-5.2-9.1-7.2-19.4-7.2-28.3v-65.8l-28.5-16.5v-32.9l28.5,16.5v-32.9l-28.5,16.5,28.5,16.5v-16.5l-14.2-8.2,14.2-8.2v-32.9l14.2-8.2,28.5,16.5h0s0,65.8,0,65.8l28.5,16.5v32.9l-14.2,8.2v16.4c0,10.2,5.5,19.7,14.3,24.8l14.2,8.2v32.9l-14.2,8.2v-32.9l-14.2-8.2c-8.8-5.1-14.3-14.5-14.3-24.7v-32.8s14.3,8.2,14.3,8.2l28.5-16.5v-32.9s-28.5-16.5-28.5-16.5v-65.8s-28.5-16.5-28.5-16.5l14.2-8.2,28.5,16.5v32.9l-14.2,8.2v32.9s15.3-8.8,15.3-8.8l27.5,17.2v32.8l14.3-8.2v-32.9s-28.5-16.4-28.5-16.4l-28.5,16.5v-32.9s28.5-16.4,28.5-16.4v-33s-28.5-16.5-28.5-16.5l14.2-8.2,28.5,16.5v32.9l14.2-8.2v-32.9s-28.5-16.5-28.5-16.5"/>
</svg>