<?xml version="1.0" encoding="utf-8"?>
<svg version="1.1" id="Layer_1" xmlns="http://www.w3.org/2000/svg" xmlns:xlink="http://www.w3.org/1999/xlink" x="0px" y="0px" viewBox="0 0 450 450" style="enable-background:new 0 0 450 450;" xml:space="preserve">
<style type="text/css">
	.logoPath{fill:none;stroke:#000000;stroke-width:3;stroke-linecap:round;stroke-linejoin:round;stroke-miterlimit:10;}
</style>
<path class="logoPath" id="logoPathID" d="M168,137.6l28.5,16.4v0v65.8l28.5,16.4l0,0c0,8.8,0,24.1,0,32.9l0,0l-28.5-16.4V302c0,10.2,5.4,19.6,14.3,24.7
	l14.2,8.2v32.9v0l-28.5-16.4c-7.8-4.5-16.2-12.2-21.3-21.1c-5.2-9.1-7.2-19.4-7.2-28.2v-65.7l-28.5-16.4v-32.9l28.5,16.4L168,137.6
	L168,137.6l92.6-53.4c4.7-2.7,10.1-2.4,14.2,0l28.5,16.4l0,0c4.1,2.4,7.1,6.8,7.1,12.3v90.5c0,5.1-1.3,9.9-3.8,14.2
	c-2.4,4.2-6,7.8-10.4,10.4L225,269.1l0,16.4c0,10.2,5.4,19.7,14.3,24.8l14.2,8.2v32.9L225,367.8v0l0,0l-28.5-16.4
	c-7.8-4.5-16.2-12.2-21.3-21.1c-5.2-9.1-7.2-19.4-7.2-28.2v-65.7l-28.5-16.4v-32.9l28.5-16.4v16.4l-14.2-8.2l14.2-8.2L168,137.6
	l14.2-8.2l28.5,16.4l0,0l0,65.8l28.5,16.4V261l-14.2,8.2l-14.2-8.2l0,32.8c0,10.2,5.4,19.6,14.3,24.7l14.2,8.2v32.8l14.2-8.2v-32.9
	l-14.2-8.2c-8.8-5.1-14.3-14.5-14.3-24.8l0-16.4l28.5-16.4v-32.9L225,203.4v-32.9v-32.9l-28.5-16.4l14.2-8.2l28.5,16.4v0v32.9
	l-14.2,8.2v32.9l14.3-8.3l28.5,16.4l-0.1,0.1v32.8l14.2-8.2v-32.8l-32.3-18.7c-2.4,4.2-6,7.8-10.3,10.3l-14.4,8.3v-32.9l28.5-16.4
	l0-32.9L225,104.7l14.2-8.2l28.5,16.4l0,0v35v0c-2.4,0-4.8,0.6-7.1,1.9l-7.2,4.2v16.5v0c0,5-1.3,9.9-3.8,14.1l32.3,18.7l0-41.4
	c-0.1-10.8-11.9-17.5-21.3-12.1l-7.2,4.2v16.5l28.5,16.4v-16.6l-28.5-16.4l7.2-4.2c9.4-5.4,21.1,1.3,21.3,12.1v-57.3l-28.5-16.4
	l7.1-4.1c4.7-2.7,10.1-2.4,14.2,0l21.4,12.3l0.1,131.5" pathLength="1" stroke-dasharray="1" />
<animate attributeName="stroke-dashoffset" values="1;0" dur="15s"/>
<circle class="animCircle" id="animCircleID" r="3" fill="#000000">
    <animateMotion dur="15s" path="M168,137.6l28.5,16.4v0v65.8l28.5,16.4l0,0c0,8.8,0,24.1,0,32.9l0,0l-28.5-16.4V302c0,10.2,5.4,19.6,14.3,24.7
	l14.2,8.2v32.9v0l-28.5-16.4c-7.8-4.5-16.2-12.2-21.3-21.1c-5.2-9.1-7.2-19.4-7.2-28.2v-65.7l-28.5-16.4v-32.9l28.5,16.4L168,137.6
	L168,137.6l92.6-53.4c4.7-2.7,10.1-2.4,14.2,0l28.5,16.4l0,0c4.1,2.4,7.1,6.8,7.1,12.3v90.5c0,5.1-1.3,9.9-3.8,14.2
	c-2.4,4.2-6,7.8-10.4,10.4L225,269.1l0,16.4c0,10.2,5.4,19.7,14.3,24.8l14.2,8.2v32.9L225,367.8v0l0,0l-28.5-16.4
	c-7.8-4.5-16.2-12.2-21.3-21.1c-5.2-9.1-7.2-19.4-7.2-28.2v-65.7l-28.5-16.4v-32.9l28.5-16.4v16.4l-14.2-8.2l14.2-8.2L168,137.6
	l14.2-8.2l28.5,16.4l0,0l0,65.8l28.5,16.4V261l-14.2,8.2l-14.2-8.2l0,32.8c0,10.2,5.4,19.6,14.3,24.7l14.2,8.2v32.8l14.2-8.2v-32.9
	l-14.2-8.2c-8.8-5.1-14.3-14.5-14.3-24.8l0-16.4l28.5-16.4v-32.9L225,203.4v-32.9v-32.9l-28.5-16.4l14.2-8.2l28.5,16.4v0v32.9
	l-14.2,8.2v32.9l14.3-8.3l28.5,16.4l-0.1,0.1v32.8l14.2-8.2v-32.8l-32.3-18.7c-2.4,4.2-6,7.8-10.3,10.3l-14.4,8.3v-32.9l28.5-16.4
	l0-32.9L225,104.7l14.2-8.2l28.5,16.4l0,0v35v0c-2.4,0-4.8,0.6-7.1,1.9l-7.2,4.2v16.5v0c0,5-1.3,9.9-3.8,14.1l32.3,18.7l0-41.4
	c-0.1-10.8-11.9-17.5-21.3-12.1l-7.2,4.2v16.5l28.5,16.4v-16.6l-28.5-16.4l7.2-4.2c9.4-5.4,21.1,1.3,21.3,12.1v-57.3l-28.5-16.4
	l7.1-4.1c4.7-2.7,10.1-2.4,14.2,0l21.4,12.3l0.1,131.5" />
	<animate attributeName="opacity" values="1;0" begin="15s" dur="0.01s" fill="freeze" />
</circle>
</svg>
